<?xml version="1.0" encoding="utf-8"?>
<!-- Generator: Adobe Illustrator 25.0.1, SVG Export Plug-In . SVG Version: 6.00 Build 0)  -->
<svg version="1.1" id="图层_1" xmlns="http://www.w3.org/2000/svg" xmlns:xlink="http://www.w3.org/1999/xlink" x="0px" y="0px"
	 viewBox="0 0 512 512" style="enable-background:new 0 0 512 512;" xml:space="preserve">
<style type="text/css">
	.st0{fill:#FFFFFF;}
	.st1{fill:#656DB2;}
	.st2{fill:#B4555B;}
	.st3{fill:#9E668F;}
	.st4{fill:#876CAC;}
	.st5{fill:#4D4B80;}
	.st6{fill:#AA617D;}
	.st7{fill:#4B62AC;}
	.st8{fill:#906391;}
	.st9{fill:#7F4557;}
	.st10{fill:#B35B69;}
	.st11{fill:#4A569C;}
	.st12{fill:#62476C;}
</style>
<g>
	<g>
		<path class="st0" d="M0,0c170.7,0,341.3,0,512,0c0,170.7,0,341.3,0,512c-170.7,0-341.3,0-512,0C0,341.3,0,170.7,0,0z M261.2,79.9
			c-5.8-1.7-11.5-3.5-17.3-5.2c-3.3-0.3-6.6-0.7-9.9-0.9c-8.2-0.6-8-0.5-11.8,6.9c-5.8,11.5-11,23.6-21.2,32.2
			c-0.5,0.4-0.8,1-1.1,1.6c-2.9,7.5-4.8,15.6-8.7,22.5c-6.7,12-12.9,24.1-15.7,37.5c-5,24.5-12.8,48.1-23,70.9
			c-1.3,2.8-2.3,5.9-2.8,9c-0.9,6-2,11.7-6,16.5c-1,1.1-1,3.1-1.4,4.7c-0.6,3-0.8,6.1-1.8,9c-2.4,7-6.6,13.4-5.2,21.3
			c-0.6,2.9-1.1,5.9-1.9,8.7c-3.5,11.8-8.3,23.3-10.4,35.3c-2.6,14.8-3,30-4.3,45c-2.6,8.7-5.2,17.3-7.8,26c-0.7,2.3-1.1,4.7-1.6,7
			c0.5,6.5,1.1,13,1.6,19.4c0.5,0.1,1,0.1,1.5,0.2c1.2-2,2.4-4.1,3.7-6.3c4.4,1,9.4,3.6,10.7-3.8c0.1-0.3,1.7-0.9,2-0.6
			c0.6,0.6,1,1.5,1.1,2.4c0.3,1.9,0.4,3.8,0.5,5.7c4.8-4.6,8.9-8.2,15.5-6.5c0.5,0.1,1.6-1,2.1-1.8c8.2-11.4,14.3-23.8,16.9-37.8
			c3.9-12.7,7.8-25.4,11.7-38.1c2.6-8.7,5.1-17.5,7.9-26.1c1.3-4,3.8-6.9,8.8-7.2c3.5-0.2,7-1.8,10.5-2.8c0.5,0,1,0,1.5-0.1
			c12.5-2.6,24.4-7.7,37.6-6.9c4.4,0.3,9-0.3,13.4-1.1c6.1-1.2,12-3.1,18-4.8c1.9-0.5,3.7-1.2,5.6-1.9c1.9-0.9,3.7-1.9,5.6-2.8
			c1.5-0.7,3.6-2.1,4.5-1.6c1.4,0.9,2.4,2.9,2.9,4.7c0.9,3.2,1.3,6.4,1.9,9.7c1.4,9.6,2.8,19.3,4.2,28.9c0.7,5.1,1.3,10.2,2,15.2
			c2.5,17.7,4.9,35.4,11.3,52.2c0.5,1.4-0.3,3.3-0.6,5.2c1.8,0.3,4.6-0.1,6.4,1.1c7.1,4.8,13.8,10.2,20.6,15.3
			c1.6,1.2,3.4,3.1,5.1,3c6.7-0.4,10.8,3.4,15,8.8c3.6-3,6.9-5.8,10.3-8.7c1.8-2.3,3.8-2.8,6.7-1.9c2.1,0.6,4.6,0.5,6.7,0
			c0.9-0.2,1.5-2.1,2.2-3.3c-0.2-0.8-0.4-1.6-0.5-2.4c0.2-0.3,0.2-0.6-0.1-0.8c0.2-4.9,0.4-9.8,0.6-14.8c0-0.3,0.2-0.7,0.1-1
			c-8.5-24-17-48.1-25.5-72.1c-1.8-5.3-3.6-10.6-5.4-15.9c-1.3-4.1-2.5-8.2-3.8-12.3c-1.1-3.9-2.1-7.8-3.2-11.8
			c-0.9-4-1.6-8-2.8-11.9c-1.1-3.5-1-6.5,1.9-9.1c1.2-1.3,2.3-2.7,3.6-4.1c-1-0.5-2.1-1.1-4-2c3.9-1.1,7-2,11.4-3.3
			c-5.7-4.2-10.2-7.3-14.4-10.8c-1-0.8-0.7-3.1-1.1-4.6c-2.2-4.7-8.9-6.3-8.9-13c-1.8-7.7-3.7-15.4-5.5-23.1
			c-5.1-21.6-10.2-43.3-15.4-64.9c-2.8-12.1-5.5-24.2-8.3-36.3c-0.2-0.7-1-1.2-1.5-1.8c-0.4-3.5-0.8-7-1.4-11.6
			c-4,3.7-7.3,6.7-10.5,9.7c-1.7,1.2-3.4,2.4-5,3.6c0-0.8,0-1.7,0-2.5c1.6-5.4,3.4-10.8,4.7-16.2c0.3-1.3-0.5-3.5-1.5-4.3
			c-4.3-3.3-8.9-6.2-13.4-9.3C270.4,86.1,265.8,83,261.2,79.9z"/>
		<path class="st1" d="M135.5,306c-1.4-7.9,2.8-14.4,5.2-21.3c1-2.9,1.2-6,1.8-9c0.3-1.6,0.4-3.6,1.4-4.7c4.1-4.8,5.1-10.6,6-16.5
			c0.5-3.1,1.5-6.1,2.8-9c10.3-22.8,18-46.4,23-70.9c2.7-13.5,9-25.6,15.7-37.5c3.9-7,5.8-15,8.7-22.5c0.2-0.6,0.6-1.2,1.1-1.6
			c10.2-8.7,15.4-20.7,21.2-32.2c3.8-7.4,3.5-7.6,11.8-6.9c3.3,0.3,6.6,0.6,9.9,0.9c0.4,1.6,0.7,3.2,1.3,4.7c2,5.1,4.5,9.9,5.9,15.1
			c1.7,5.9,2.5,12.1,3.9,18.8c3.1-1.8,6-3.6,8.9-5.3c-0.7,6-1.3,12-2,18c-4.8,10-8.6,20.7-14.7,29.8c-5.9,8.8-14.6,15.7-21.4,24
			c-15,18.1-30.6,35.9-44,55.1c-14.7,21.1-27.1,43.7-40.7,65.6C139.8,302.6,137.4,304.2,135.5,306z"/>
		<path class="st2" d="M280.1,310.1c-1.9,0.6-3.7,1.4-5.6,1.9c-6,1.7-12,3.5-18,4.8c-4.4,0.9-8.9,1.4-13.4,1.1
			c-13.2-0.8-25.1,4.3-37.6,6.9c-0.5,0.1-1,0.1-1.5,0.1c1.9-5.2,3.9-10.4,5.8-15.6c4.8-13.7,13.8-25.1,21.5-37.1
			c1.6-2.4,2.5-5.2,3.7-7.9c13.6-1.7,27.3-3.5,40.9-5c3.4-0.4,5.5-1.9,4.7-5.4c-2.9-12-6.1-24-9.2-36c5.9-8.3,12.1-16.5,17.6-25.1
			c6.6-10.2,12.5-20.9,18.8-31.3c0.9-1.5,2.7-2.4,4.1-3.5c5.1,21.6,10.2,43.3,15.4,64.9c1.8,7.7,3.7,15.4,5.5,23.1
			c-1.2,0.4-2.6,0.6-3.5,1.3c-3.4,2.9-7,5.7-9.9,9c-3.8,4.2-7.2,8.9-10.7,13.4c-5.1,6.7-10,13.5-15.1,20.2
			c-4.1,5.4-8.6,10.5-12.6,15.9C280.1,306.9,280.3,308.6,280.1,310.1z"/>
		<path class="st3" d="M165.1,399c-2.6,13.9-8.7,26.3-16.9,37.8c-0.5,0.8-1.6,1.9-2.1,1.8c-6.5-1.7-10.6,1.9-15.5,6.5
			c-0.2-1.9-0.2-3.8-0.5-5.7c-0.1-0.9-0.5-1.8-1.1-2.4c-0.3-0.3-1.9,0.3-2,0.6c-1.3,7.3-6.3,4.8-10.7,3.8c-1.3,2.2-2.5,4.3-3.7,6.3
			c-0.5-0.1-1-0.1-1.5-0.2c-0.5-6.5-1.1-13-1.6-19.4c1.6-1.5,3.8-2.6,4.6-4.4c9.4-23,18.3-46.2,28.1-69
			c7.1-16.8,14.7-33.4,23.1-49.5C172,292,180,279.5,188,267.1c9.7-14.8,19.9-29.3,30.1-43.7c7.8-11.1,16-21.9,24.1-32.7
			c0.7-1,2.5-1.2,3.8-1.8c-6.2,14.4-12.3,28.7-18.5,43.1c-1.7,1.4-3.7,2.5-5,4.2c-2.9,3.8-5.5,7.8-8.1,11.9
			c-7.5,11.7-15.3,23.3-22.4,35.2c-5.4,9.1-9.8,18.7-15.1,27.9c-10.3,17.7-18.8,36.1-23.3,56.2c-1.6,7.2-1.9,14.9-1.9,22.4
			C151.6,396.4,155.9,398.9,165.1,399z"/>
		<path class="st4" d="M135.5,306c1.9-1.8,4.3-3.3,5.7-5.5c13.6-21.9,26-44.5,40.7-65.6c13.4-19.3,29-37,44-55.1
			c6.8-8.3,15.5-15.2,21.4-24c6.1-9.1,9.9-19.8,14.7-29.8c1.5-0.5,2.9-1.1,5-1.8c0,2.9,0,5.4,0,7.8c-2.3,5.4-4.2,11-7.1,16
			c-4.3,7.3-9.5,14-14.2,21c-2.1,3.1-4.9,6.4-5.4,9.8c-1.5,9.2-7.1,16-12,23.2c-11.2,16.4-23.1,32.3-34.3,48.7
			c-19.8,28.9-37.3,59.2-51,91.5c-6.9,16.4-13.9,32.9-20.9,49.3c-0.6,1.3-2,2.3-3,3.4c1.3-15,1.7-30.2,4.3-45
			c2.1-12,6.9-23.6,10.4-35.3C134.4,311.8,134.9,308.9,135.5,306z"/>
		<path class="st5" d="M347,305c1.1,3.9,2.1,7.8,3.2,11.8c-1.2,1.2-2.2,2.9-3.6,3.4c-21.6,8-33.1,27.1-33.4,48.4
			c-0.2,13.4,5.9,25.6,12.8,36.6c9.8,15.6,23.9,26.9,41,34.1c0.8,0.3,1.4,1.3,2.1,2c-3.4,2.8-6.7,5.7-10.3,8.7
			c-4.2-5.5-8.3-9.2-15-8.8c-1.6,0.1-3.5-1.8-5.1-3c-6.9-5.1-13.6-10.4-20.6-15.3c-1.7-1.2-4.6-0.9-6.4-1.1c0.2-1.9,1.1-3.8,0.6-5.2
			c-6.3-16.9-8.8-34.6-11.3-52.2c-0.7-5.1-1.3-10.2-2-15.2c0.8-0.6,1.8-0.9,2.2-1.7c2.9-5.2,5.3-10.6,8.5-15.6
			C318.5,317.9,330.9,308.9,347,305z"/>
		<path class="st6" d="M165.1,399c-9.2-0.1-13.5-2.7-13.5-9.3c0-7.5,0.3-15.1,1.9-22.4c4.5-20,13-38.5,23.3-56.2
			c5.3-9.1,9.7-18.8,15.1-27.9c7.1-11.9,14.9-23.5,22.4-35.2c2.6-4,5.2-8.1,8.1-11.9c1.3-1.7,3.3-2.8,5-4.2
			c-3.7,10.7-7.5,21.4-11.1,32.2c-0.2,0.4,0.4,1.1,0.6,1.7c-4.5,7.1-9.4,14-13.5,21.3c-4.7,8.3-9.1,16.9-13,25.6
			c-5.3,11.8-10.2,23.7-14.7,35.8c-1.4,3.8-2.8,8.5,0.9,12.3C172.9,373.7,169,386.4,165.1,399z"/>
		<path class="st7" d="M384.2,433.6c0.2,0.8,0.4,1.6,0.5,2.4c-12.5-1.6-23.4-6.5-33.1-14.6c-15.6-12.9-26.5-27.7-28-49.2
			c-1.1-16.7,12.9-39.9,30.3-43.2c1.8,5.3,3.6,10.6,5.3,15.9c-13.1,3.9-21.4,17.6-17.8,30.8c6.1,22.3,20.9,36.2,43.1,42.3
			c-0.2,4.9-0.4,9.8-0.6,14.8C384.1,433.1,384.1,433.4,384.2,433.6z"/>
		<path class="st8" d="M118.9,395c1-1.1,2.5-2.1,3-3.4c7.1-16.4,14-32.8,20.9-49.3c13.7-32.4,31.2-62.6,51-91.5
			c11.2-16.4,23.1-32.3,34.3-48.7c4.9-7.2,10.6-14,12-23.2c0.6-3.5,3.3-6.7,5.4-9.8c4.7-7,9.9-13.8,14.2-21c3-5,4.8-10.6,7.1-16
			c2.3-1.7,4.7-3.5,7-5.2c1.7-1.4,4.2-2.4,4.9-4.2c1.3-3.2,3.2-4.2,6.3-3.6c0,0.8,0,1.7,0,2.5c-0.6,2.5-0.9,5.2-1.8,7.6
			c-2.2,6.1-4.1,12.5-7.3,18.2c-4.1,7.5-9.4,14.4-14.1,21.6c-0.9,0.4-2.3,0.4-2.8,1.1c-4.5,6.2-8.8,12.5-13.2,18.8
			c-1.3,0.6-3,0.8-3.8,1.8c-8.2,10.8-16.3,21.6-24.1,32.7c-10.2,14.4-20.4,28.9-30.1,43.7c-8.1,12.3-16,24.8-22.8,37.9
			c-8.4,16.1-16,32.7-23.1,49.5c-9.7,22.9-18.6,46.1-28.1,69c-0.7,1.8-3,3-4.6,4.4c0.5-2.3,1-4.7,1.6-7
			C113.7,412.3,116.3,403.6,118.9,395z"/>
		<path class="st9" d="M280.1,310.1c0.2-1.4,0-3.2,0.8-4.2c4.1-5.4,8.5-10.5,12.6-15.9c5.1-6.7,10-13.5,15.1-20.2
			c3.5-4.6,6.9-9.2,10.7-13.4c3-3.3,6.5-6.1,9.9-9c0.9-0.8,2.3-0.9,3.5-1.3c0.1,6.8,6.7,8.3,8.9,13c0.3,1.6,0.1,3.8,1.1,4.6
			c4.2,3.5,8.7,6.6,14.4,10.8c-4.4,1.3-7.5,2.2-11.4,3.3c1.9,0.9,3,1.5,4,2c-1.3,1.5-2.5,2.8-3.6,4.1c-2.9,0.5-6.2,0.3-8.7,1.5
			c-6.3,3.2-12.6,6.7-18.1,11c-5.7,4.5-10.5,10.1-15.7,15.2c-2.9,2.8-5.9,5.6-8.8,8.3c-0.6-3.2-1-6.5-1.9-9.7
			c-0.5-1.7-1.5-3.8-2.9-4.7c-0.8-0.5-3,0.9-4.5,1.6C283.7,308.2,281.9,309.1,280.1,310.1z"/>
		<path class="st1" d="M384.6,418c-22.2-6.1-37-19.9-43.1-42.3c-3.6-13.2,4.7-26.9,17.8-30.8c8.5,24,17,48.1,25.5,72.1
			C384.9,417.3,384.7,417.7,384.6,418z"/>
		<path class="st10" d="M311.9,158c-1.4,1.2-3.2,2.1-4.1,3.5c-6.4,10.4-12.3,21-18.8,31.3c-5.5,8.6-11.7,16.7-17.6,25.1
			c-2-8.9-4-17.8-6-26.7c1.4-1.2,3.4-2.2,4.3-3.7c7.1-11.8,13.7-23.8,20.9-35.4c4.7-7.4,6.3-15.4,6.5-23.9c1.7-2.7,3.4-5.5,5.1-8.2
			c0.5,0.6,1.3,1.1,1.5,1.8C306.4,133.8,309.1,145.9,311.9,158z"/>
		<path class="st11" d="M354,329c-17.4,3.3-31.5,26.5-30.3,43.2c1.5,21.5,12.4,36.3,28,49.2c9.7,8.1,20.7,13,33.1,14.6
			c-0.7,1.1-1.3,3.1-2.2,3.3c-2.2,0.5-4.7,0.6-6.7,0c-2.9-0.9-4.9-0.3-6.7,1.9c-0.7-0.7-1.2-1.7-2.1-2c-17.1-7.2-31.2-18.4-41-34.1
			c-6.9-11-13-23.2-12.8-36.6c0.3-21.2,11.7-40.4,33.4-48.4c1.4-0.5,2.4-2.3,3.6-3.4C351.4,320.8,352.7,324.9,354,329z"/>
		<path class="st10" d="M176.8,361c-3.7-3.8-2.3-8.5-0.9-12.3c4.5-12.1,9.4-24,14.7-35.8c3.9-8.7,8.3-17.3,13-25.6
			c4.1-7.3,9-14.2,13.5-21.3c6-0.6,12-1.1,18-1.7c-1.2,2.6-2.2,5.4-3.7,7.9c-7.7,12.1-16.7,23.4-21.5,37.1
			c-1.8,5.2-3.8,10.4-5.8,15.6c-3.5,1-7,2.6-10.5,2.8c-5,0.3-7.4,3.2-8.8,7.2C181.9,343.5,179.4,352.3,176.8,361z"/>
		<path class="st12" d="M294.8,320c2.9-2.8,5.9-5.5,8.8-8.3c5.2-5.1,10-10.7,15.7-15.2c5.5-4.3,11.8-7.7,18.1-11
			c2.5-1.3,5.8-1.1,8.7-1.5c-2.9,2.6-3,5.6-1.9,9.1c1.2,3.9,1.9,7.9,2.8,11.9c-16,3.9-28.5,12.9-37.2,26.8c-3.2,5-5.6,10.4-8.5,15.6
			c-0.4,0.7-1.5,1.1-2.2,1.7C297.6,339.3,296.2,329.7,294.8,320z"/>
		<path class="st6" d="M297,128.2c-0.1,8.5-1.8,16.5-6.5,23.9c-7.3,11.6-13.9,23.6-20.9,35.4c-0.9,1.5-2.8,2.5-4.3,3.7
			c-1.1-7.4-2.2-14.8-3.4-22.1c4.8-7.2,10-14.1,14.1-21.6c3.1-5.7,5-12.1,7.3-18.2c0.9-2.4,1.2-5.1,1.8-7.6c1.7-1.2,3.4-2.4,5-3.6
			c0.9,3.5,1.8,6.9,2.7,10.4C294.2,128.4,295.6,128.3,297,128.2z"/>
		<path class="st11" d="M274,126.8c-2.3,1.7-4.7,3.5-7,5.2c0-2.4,0-4.9,0-7.8c-2,0.7-3.5,1.3-5,1.8c0.7-6,1.3-12,2-18
			c-1.1-7.9-2.3-15.8-3.3-23.7c-0.2-1.4,0.3-2.9,0.5-4.4c4.6,3.1,9.2,6.3,13.8,9.4C274.7,101.8,274.3,114.3,274,126.8z"/>
		<path class="st7" d="M261.2,79.9c-0.2,1.5-0.7,3-0.5,4.4c1,7.9,2.2,15.8,3.3,23.7c-2.9,1.7-5.8,3.4-8.9,5.3
			c-1.3-6.7-2.2-12.8-3.9-18.8c-1.5-5.2-4-10.1-5.9-15.1c-0.6-1.5-0.9-3.2-1.3-4.7C249.7,76.4,255.4,78.1,261.2,79.9z"/>
		<path class="st5" d="M274,126.8c0.3-12.5,0.7-25,1-37.5c4.5,3.1,9.1,6,13.4,9.3c1,0.8,1.8,3,1.5,4.3c-1.3,5.5-3.1,10.8-4.7,16.2
			c-3.1-0.6-4.9,0.4-6.3,3.6C278.2,124.4,275.7,125.5,274,126.8z"/>
		<path class="st9" d="M297,128.2c-1.4,0.1-2.8,0.2-4.1,0.3c-0.9-3.5-1.8-7-2.7-10.4c3.2-3,6.5-6,10.5-9.7c0.5,4.6,1,8.1,1.4,11.6
			C300.4,122.7,298.7,125.4,297,128.2z"/>
		<path class="st11" d="M384.2,433.6c0-0.3-0.1-0.6-0.1-0.8C384.4,433.1,384.4,433.3,384.2,433.6z"/>
		<path class="st0" d="M262,169c1.1,7.4,2.2,14.8,3.4,22.1c2,8.9,4,17.8,6,26.7c3.1,12,6.3,24,9.2,36c0.8,3.5-1.3,5-4.7,5.4
			c-13.6,1.6-27.3,3.3-40.9,5c-6,0.6-12,1.1-18,1.7c-0.2-0.6-0.8-1.2-0.6-1.7c3.7-10.7,7.4-21.5,11.1-32.2
			c6.2-14.4,12.3-28.7,18.5-43.1c4.4-6.3,8.7-12.6,13.2-18.8C259.7,169.5,261.1,169.4,262,169z"/>
	</g>
</g>
<g>
	<g>
		<g>
			<path class="st0" d="M0,0c170.7,0,341.3,0,512,0c0,170.7,0,341.3,0,512c-170.7,0-341.3,0-512,0C0,341.3,0,170.7,0,0z M261.2,79.9
				c-5.8-1.7-11.5-3.5-17.3-5.2c-3.3-0.3-6.6-0.7-9.9-0.9c-8.2-0.6-8-0.5-11.8,6.9c-5.8,11.5-11,23.6-21.2,32.2
				c-0.5,0.4-0.8,1-1.1,1.6c-2.9,7.5-4.8,15.6-8.7,22.5c-6.7,12-12.9,24.1-15.7,37.5c-5,24.5-12.8,48.1-23,70.9
				c-1.3,2.8-2.3,5.9-2.8,9c-0.9,6-2,11.7-6,16.5c-1,1.1-1,3.1-1.4,4.7c-0.6,3-0.8,6.1-1.8,9c-2.4,7-6.6,13.4-5.2,21.3
				c-0.6,2.9-1.1,5.9-1.9,8.7c-3.5,11.8-8.3,23.3-10.4,35.3c-2.6,14.8-3,30-4.3,45c-2.6,8.7-5.2,17.3-7.8,26c-0.7,2.3-1.1,4.7-1.6,7
				c0.5,6.5,1.1,13,1.6,19.4c0.5,0.1,1,0.1,1.5,0.2c1.2-2,2.4-4.1,3.7-6.3c4.4,1,9.4,3.6,10.7-3.8c0.1-0.3,1.7-0.9,2-0.6
				c0.6,0.6,1,1.5,1.1,2.4c0.3,1.9,0.4,3.8,0.5,5.7c4.8-4.6,8.9-8.2,15.5-6.5c0.5,0.1,1.6-1,2.1-1.8c8.2-11.4,14.3-23.8,16.9-37.8
				c3.9-12.7,7.8-25.4,11.7-38.1c2.6-8.7,5.1-17.5,7.9-26.1c1.3-4,3.8-6.9,8.8-7.2c3.5-0.2,7-1.8,10.5-2.8c0.5,0,1,0,1.5-0.1
				c12.5-2.6,24.4-7.7,37.6-6.9c4.4,0.3,9-0.3,13.4-1.1c6.1-1.2,12-3.1,18-4.8c1.9-0.5,3.7-1.2,5.6-1.9c1.9-0.9,3.7-1.9,5.6-2.8
				c1.5-0.7,3.6-2.1,4.5-1.6c1.4,0.9,2.4,2.9,2.9,4.7c0.9,3.2,1.3,6.4,1.9,9.7c1.4,9.6,2.8,19.3,4.2,28.9c0.7,5.1,1.3,10.2,2,15.2
				c2.5,17.7,4.9,35.4,11.3,52.2c0.5,1.4-0.3,3.3-0.6,5.2c1.8,0.3,4.6-0.1,6.4,1.1c7.1,4.8,13.8,10.2,20.6,15.3
				c1.6,1.2,3.4,3.1,5.1,3c6.7-0.4,10.8,3.4,15,8.8c3.6-3,6.9-5.8,10.3-8.7c1.8-2.3,3.8-2.8,6.7-1.9c2.1,0.6,4.6,0.5,6.7,0
				c0.9-0.2,1.5-2.1,2.2-3.3c-0.2-0.8-0.4-1.6-0.5-2.4c0.2-0.3,0.2-0.6-0.1-0.8c0.2-4.9,0.4-9.8,0.6-14.8c0-0.3,0.2-0.7,0.1-1
				c-8.5-24-17-48.1-25.5-72.1c-1.8-5.3-3.6-10.6-5.4-15.9c-1.3-4.1-2.5-8.2-3.8-12.3c-1.1-3.9-2.1-7.8-3.2-11.8
				c-0.9-4-1.6-8-2.8-11.9c-1.1-3.5-1-6.5,1.9-9.1c1.2-1.3,2.3-2.7,3.6-4.1c-1-0.5-2.1-1.1-4-2c3.9-1.1,7-2,11.4-3.3
				c-5.7-4.2-10.2-7.3-14.4-10.8c-1-0.8-0.7-3.1-1.1-4.6c-2.2-4.7-8.9-6.3-8.9-13c-1.8-7.7-3.7-15.4-5.5-23.1
				c-5.1-21.6-10.2-43.3-15.4-64.9c-2.8-12.1-5.5-24.2-8.3-36.3c-0.2-0.7-1-1.2-1.5-1.8c-0.4-3.5-0.8-7-1.4-11.6
				c-4,3.7-7.3,6.7-10.5,9.7c-1.7,1.2-3.4,2.4-5,3.6c0-0.8,0-1.7,0-2.5c1.6-5.4,3.4-10.8,4.7-16.2c0.3-1.3-0.5-3.5-1.5-4.3
				c-4.3-3.3-8.9-6.2-13.4-9.3C270.4,86.1,265.8,83,261.2,79.9z"/>
			<path class="st1" d="M135.5,306c-1.4-7.9,2.8-14.4,5.2-21.3c1-2.9,1.2-6,1.8-9c0.3-1.6,0.4-3.6,1.4-4.7c4.1-4.8,5.1-10.6,6-16.5
				c0.5-3.1,1.5-6.1,2.8-9c10.3-22.8,18-46.4,23-70.9c2.7-13.5,9-25.6,15.7-37.5c3.9-7,5.8-15,8.7-22.5c0.2-0.6,0.6-1.2,1.1-1.6
				c10.2-8.7,15.4-20.7,21.2-32.2c3.8-7.4,3.5-7.6,11.8-6.9c3.3,0.3,6.6,0.6,9.9,0.9c0.4,1.6,0.7,3.2,1.3,4.7
				c2,5.1,4.5,9.9,5.9,15.1c1.7,5.9,2.5,12.1,3.9,18.8c3.1-1.8,6-3.6,8.9-5.3c-0.7,6-1.3,12-2,18c-4.8,10-8.6,20.7-14.7,29.8
				c-5.9,8.8-14.6,15.7-21.4,24c-15,18.1-30.6,35.9-44,55.1c-14.7,21.1-27.1,43.7-40.7,65.6C139.8,302.6,137.4,304.2,135.5,306z"/>
			<path class="st2" d="M280.1,310.1c-1.9,0.6-3.7,1.4-5.6,1.9c-6,1.7-12,3.5-18,4.8c-4.4,0.9-8.9,1.4-13.4,1.1
				c-13.2-0.8-25.1,4.3-37.6,6.9c-0.5,0.1-1,0.1-1.5,0.1c1.9-5.2,3.9-10.4,5.8-15.6c4.8-13.7,13.8-25.1,21.5-37.1
				c1.6-2.4,2.5-5.2,3.7-7.9c13.6-1.7,27.3-3.5,40.9-5c3.4-0.4,5.5-1.9,4.7-5.4c-2.9-12-6.1-24-9.2-36c5.9-8.3,12.1-16.5,17.6-25.1
				c6.6-10.2,12.5-20.9,18.8-31.3c0.9-1.5,2.7-2.4,4.1-3.5c5.1,21.6,10.2,43.3,15.4,64.9c1.8,7.7,3.7,15.4,5.5,23.1
				c-1.2,0.4-2.6,0.6-3.5,1.3c-3.4,2.9-7,5.7-9.9,9c-3.8,4.2-7.2,8.9-10.7,13.4c-5.1,6.7-10,13.5-15.1,20.2
				c-4.1,5.4-8.6,10.5-12.6,15.9C280.1,306.9,280.3,308.6,280.1,310.1z"/>
			<path class="st3" d="M165.1,399c-2.6,13.9-8.7,26.3-16.9,37.8c-0.5,0.8-1.6,1.9-2.1,1.8c-6.5-1.7-10.6,1.9-15.5,6.5
				c-0.2-1.9-0.2-3.8-0.5-5.7c-0.1-0.9-0.5-1.8-1.1-2.4c-0.3-0.3-1.9,0.3-2,0.6c-1.3,7.3-6.3,4.8-10.7,3.8c-1.3,2.2-2.5,4.3-3.7,6.3
				c-0.5-0.1-1-0.1-1.5-0.2c-0.5-6.5-1.1-13-1.6-19.4c1.6-1.5,3.8-2.6,4.6-4.4c9.4-23,18.3-46.2,28.1-69
				c7.1-16.8,14.7-33.4,23.1-49.5C172,292,180,279.5,188,267.1c9.7-14.8,19.9-29.3,30.1-43.7c7.8-11.1,16-21.9,24.1-32.7
				c0.7-1,2.5-1.2,3.8-1.8c-6.2,14.4-12.3,28.7-18.5,43.1c-1.7,1.4-3.7,2.5-5,4.2c-2.9,3.8-5.5,7.8-8.1,11.9
				c-7.5,11.7-15.3,23.3-22.4,35.2c-5.4,9.1-9.8,18.7-15.1,27.9c-10.3,17.7-18.8,36.1-23.3,56.2c-1.6,7.2-1.9,14.9-1.9,22.4
				C151.6,396.4,155.9,398.9,165.1,399z"/>
			<path class="st4" d="M135.5,306c1.9-1.8,4.3-3.3,5.7-5.5c13.6-21.9,26-44.5,40.7-65.6c13.4-19.3,29-37,44-55.1
				c6.8-8.3,15.5-15.2,21.4-24c6.1-9.1,9.9-19.8,14.7-29.8c1.5-0.5,2.9-1.1,5-1.8c0,2.9,0,5.4,0,7.8c-2.3,5.4-4.2,11-7.1,16
				c-4.3,7.3-9.5,14-14.2,21c-2.1,3.1-4.9,6.4-5.4,9.8c-1.5,9.2-7.1,16-12,23.2c-11.2,16.4-23.1,32.3-34.3,48.7
				c-19.8,28.9-37.3,59.2-51,91.5c-6.9,16.4-13.9,32.9-20.9,49.3c-0.6,1.3-2,2.3-3,3.4c1.3-15,1.7-30.2,4.3-45
				c2.1-12,6.9-23.6,10.4-35.3C134.4,311.8,134.9,308.9,135.5,306z"/>
			<path class="st5" d="M347,305c1.1,3.9,2.1,7.8,3.2,11.8c-1.2,1.2-2.2,2.9-3.6,3.4c-21.6,8-33.1,27.1-33.4,48.4
				c-0.2,13.4,5.9,25.6,12.8,36.6c9.8,15.6,23.9,26.9,41,34.1c0.8,0.3,1.4,1.3,2.1,2c-3.4,2.8-6.7,5.7-10.3,8.7
				c-4.2-5.5-8.3-9.2-15-8.8c-1.6,0.1-3.5-1.8-5.1-3c-6.9-5.1-13.6-10.4-20.6-15.3c-1.7-1.2-4.6-0.9-6.4-1.1
				c0.2-1.9,1.1-3.8,0.6-5.2c-6.3-16.9-8.8-34.6-11.3-52.2c-0.7-5.1-1.3-10.2-2-15.2c0.8-0.6,1.8-0.9,2.2-1.7
				c2.9-5.2,5.3-10.6,8.5-15.6C318.5,317.9,330.9,308.9,347,305z"/>
			<path class="st6" d="M165.1,399c-9.2-0.1-13.5-2.7-13.5-9.3c0-7.5,0.3-15.1,1.9-22.4c4.5-20,13-38.5,23.3-56.2
				c5.3-9.1,9.7-18.8,15.1-27.9c7.1-11.9,14.9-23.5,22.4-35.2c2.6-4,5.2-8.1,8.1-11.9c1.3-1.7,3.3-2.8,5-4.2
				c-3.7,10.7-7.5,21.4-11.1,32.2c-0.2,0.4,0.4,1.1,0.6,1.7c-4.5,7.1-9.4,14-13.5,21.3c-4.7,8.3-9.1,16.9-13,25.6
				c-5.3,11.8-10.2,23.7-14.7,35.8c-1.4,3.8-2.8,8.5,0.9,12.3C172.9,373.7,169,386.4,165.1,399z"/>
			<path class="st7" d="M384.2,433.6c0.2,0.8,0.4,1.6,0.5,2.4c-12.5-1.6-23.4-6.5-33.1-14.6c-15.6-12.9-26.5-27.7-28-49.2
				c-1.1-16.7,12.9-39.9,30.3-43.2c1.8,5.3,3.6,10.6,5.3,15.9c-13.1,3.9-21.4,17.6-17.8,30.8c6.1,22.3,20.9,36.2,43.1,42.3
				c-0.2,4.9-0.4,9.8-0.6,14.8C384.1,433.1,384.1,433.4,384.2,433.6z"/>
			<path class="st8" d="M118.9,395c1-1.1,2.5-2.1,3-3.4c7.1-16.4,14-32.8,20.9-49.3c13.7-32.4,31.2-62.6,51-91.5
				c11.2-16.4,23.1-32.3,34.3-48.7c4.9-7.2,10.6-14,12-23.2c0.6-3.5,3.3-6.7,5.4-9.8c4.7-7,9.9-13.8,14.2-21c3-5,4.8-10.6,7.1-16
				c2.3-1.7,4.7-3.5,7-5.2c1.7-1.4,4.2-2.4,4.9-4.2c1.3-3.2,3.2-4.2,6.3-3.6c0,0.8,0,1.7,0,2.5c-0.6,2.5-0.9,5.2-1.8,7.6
				c-2.2,6.1-4.1,12.5-7.3,18.2c-4.1,7.5-9.4,14.4-14.1,21.6c-0.9,0.4-2.3,0.4-2.8,1.1c-4.5,6.2-8.8,12.5-13.2,18.8
				c-1.3,0.6-3,0.8-3.8,1.8c-8.2,10.8-16.3,21.6-24.1,32.7c-10.2,14.4-20.4,28.9-30.1,43.7c-8.1,12.3-16,24.8-22.8,37.9
				c-8.4,16.1-16,32.7-23.1,49.5c-9.7,22.9-18.6,46.1-28.1,69c-0.7,1.8-3,3-4.6,4.4c0.5-2.3,1-4.7,1.6-7
				C113.7,412.3,116.3,403.6,118.9,395z"/>
			<path class="st9" d="M280.1,310.1c0.2-1.4,0-3.2,0.8-4.2c4.1-5.4,8.5-10.5,12.6-15.9c5.1-6.7,10-13.5,15.1-20.2
				c3.5-4.6,6.9-9.2,10.7-13.4c3-3.3,6.5-6.1,9.9-9c0.9-0.8,2.3-0.9,3.5-1.3c0.1,6.8,6.7,8.3,8.9,13c0.3,1.6,0.1,3.8,1.1,4.6
				c4.2,3.5,8.7,6.6,14.4,10.8c-4.4,1.3-7.5,2.2-11.4,3.3c1.9,0.9,3,1.5,4,2c-1.3,1.5-2.5,2.8-3.6,4.1c-2.9,0.5-6.2,0.3-8.7,1.5
				c-6.3,3.2-12.6,6.7-18.1,11c-5.7,4.5-10.5,10.1-15.7,15.2c-2.9,2.8-5.9,5.6-8.8,8.3c-0.6-3.2-1-6.5-1.9-9.7
				c-0.5-1.7-1.5-3.8-2.9-4.7c-0.8-0.5-3,0.9-4.5,1.6C283.7,308.2,281.9,309.1,280.1,310.1z"/>
			<path class="st1" d="M384.6,418c-22.2-6.1-37-19.9-43.1-42.3c-3.6-13.2,4.7-26.9,17.8-30.8c8.5,24,17,48.1,25.5,72.1
				C384.9,417.3,384.7,417.7,384.6,418z"/>
			<path class="st10" d="M311.9,158c-1.4,1.2-3.2,2.1-4.1,3.5c-6.4,10.4-12.3,21-18.8,31.3c-5.5,8.6-11.7,16.7-17.6,25.1
				c-2-8.9-4-17.8-6-26.7c1.4-1.2,3.4-2.2,4.3-3.7c7.1-11.8,13.7-23.8,20.9-35.4c4.7-7.4,6.3-15.4,6.5-23.9c1.7-2.7,3.4-5.5,5.1-8.2
				c0.5,0.6,1.3,1.1,1.5,1.8C306.4,133.8,309.1,145.9,311.9,158z"/>
			<path class="st11" d="M354,329c-17.4,3.3-31.5,26.5-30.3,43.2c1.5,21.5,12.4,36.3,28,49.2c9.7,8.1,20.7,13,33.1,14.6
				c-0.7,1.1-1.3,3.1-2.2,3.3c-2.2,0.5-4.7,0.6-6.7,0c-2.9-0.9-4.9-0.3-6.7,1.9c-0.7-0.7-1.2-1.7-2.1-2c-17.1-7.2-31.2-18.4-41-34.1
				c-6.9-11-13-23.2-12.8-36.6c0.3-21.2,11.7-40.4,33.4-48.4c1.4-0.5,2.4-2.3,3.6-3.4C351.4,320.8,352.7,324.9,354,329z"/>
			<path class="st10" d="M176.8,361c-3.7-3.8-2.3-8.5-0.9-12.3c4.5-12.1,9.4-24,14.7-35.8c3.9-8.7,8.3-17.3,13-25.6
				c4.1-7.3,9-14.2,13.5-21.3c6-0.6,12-1.1,18-1.7c-1.2,2.6-2.2,5.4-3.7,7.9c-7.7,12.1-16.7,23.4-21.5,37.1
				c-1.8,5.2-3.8,10.4-5.8,15.6c-3.5,1-7,2.6-10.5,2.8c-5,0.3-7.4,3.2-8.8,7.2C181.9,343.5,179.4,352.3,176.8,361z"/>
			<path class="st12" d="M294.8,320c2.9-2.8,5.9-5.5,8.8-8.3c5.2-5.1,10-10.7,15.7-15.2c5.5-4.3,11.8-7.7,18.1-11
				c2.5-1.3,5.8-1.1,8.7-1.5c-2.9,2.6-3,5.6-1.9,9.1c1.2,3.9,1.9,7.9,2.8,11.9c-16,3.9-28.5,12.9-37.2,26.8
				c-3.2,5-5.6,10.4-8.5,15.6c-0.4,0.7-1.5,1.1-2.2,1.7C297.6,339.3,296.2,329.7,294.8,320z"/>
			<path class="st6" d="M297,128.2c-0.1,8.5-1.8,16.5-6.5,23.9c-7.3,11.6-13.9,23.6-20.9,35.4c-0.9,1.5-2.8,2.5-4.3,3.7
				c-1.1-7.4-2.2-14.8-3.4-22.1c4.8-7.2,10-14.1,14.1-21.6c3.1-5.7,5-12.1,7.3-18.2c0.9-2.4,1.2-5.1,1.8-7.6c1.7-1.2,3.4-2.4,5-3.6
				c0.9,3.5,1.8,6.9,2.7,10.4C294.2,128.4,295.6,128.3,297,128.2z"/>
			<path class="st11" d="M274,126.8c-2.3,1.7-4.7,3.5-7,5.2c0-2.4,0-4.9,0-7.8c-2,0.7-3.5,1.3-5,1.8c0.7-6,1.3-12,2-18
				c-1.1-7.9-2.3-15.8-3.3-23.7c-0.2-1.4,0.3-2.9,0.5-4.4c4.6,3.1,9.2,6.3,13.8,9.4C274.7,101.8,274.3,114.3,274,126.8z"/>
			<path class="st7" d="M261.2,79.9c-0.2,1.5-0.7,3-0.5,4.4c1,7.9,2.2,15.8,3.3,23.7c-2.9,1.7-5.8,3.4-8.9,5.3
				c-1.3-6.7-2.2-12.8-3.9-18.8c-1.5-5.2-4-10.1-5.9-15.1c-0.6-1.5-0.9-3.2-1.3-4.7C249.7,76.4,255.4,78.1,261.2,79.9z"/>
			<path class="st5" d="M274,126.8c0.3-12.5,0.7-25,1-37.5c4.5,3.1,9.1,6,13.4,9.3c1,0.8,1.8,3,1.5,4.3c-1.3,5.5-3.1,10.8-4.7,16.2
				c-3.1-0.6-4.9,0.4-6.3,3.6C278.2,124.4,275.7,125.5,274,126.8z"/>
			<path class="st9" d="M297,128.2c-1.4,0.1-2.8,0.2-4.1,0.3c-0.9-3.5-1.8-7-2.7-10.4c3.2-3,6.5-6,10.5-9.7c0.5,4.6,1,8.1,1.4,11.6
				C300.4,122.7,298.7,125.4,297,128.2z"/>
			<path class="st11" d="M384.2,433.6c0-0.3-0.1-0.6-0.1-0.8C384.4,433.1,384.4,433.3,384.2,433.6z"/>
			<path class="st0" d="M262,169c1.1,7.4,2.2,14.8,3.4,22.1c2,8.9,4,17.8,6,26.7c3.1,12,6.3,24,9.2,36c0.8,3.5-1.3,5-4.7,5.4
				c-13.6,1.6-27.3,3.3-40.9,5c-6,0.6-12,1.1-18,1.7c-0.2-0.6-0.8-1.2-0.6-1.7c3.7-10.7,7.4-21.5,11.1-32.2
				c6.2-14.4,12.3-28.7,18.5-43.1c4.4-6.3,8.7-12.6,13.2-18.8C259.7,169.5,261.1,169.4,262,169z"/>
		</g>
	</g>
</g>
<g>
	<g>
		<g>
			<path class="st0" d="M0,0c170.7,0,341.3,0,512,0c0,170.7,0,341.3,0,512c-170.7,0-341.3,0-512,0C0,341.3,0,170.7,0,0z M261.2,79.9
				c-5.8-1.7-11.5-3.5-17.3-5.2c-3.3-0.3-6.6-0.7-9.9-0.9c-8.2-0.6-8-0.5-11.8,6.9c-5.8,11.5-11,23.6-21.2,32.2
				c-0.5,0.4-0.8,1-1.1,1.6c-2.9,7.5-4.8,15.6-8.7,22.5c-6.7,12-12.9,24.1-15.7,37.5c-5,24.5-12.8,48.1-23,70.9
				c-1.3,2.8-2.3,5.9-2.8,9c-0.9,6-2,11.7-6,16.5c-1,1.1-1,3.1-1.4,4.7c-0.6,3-0.8,6.1-1.8,9c-2.4,7-6.6,13.4-5.2,21.3
				c-0.6,2.9-1.1,5.9-1.9,8.7c-3.5,11.8-8.3,23.3-10.4,35.3c-2.6,14.8-3,30-4.3,45c-2.6,8.7-5.2,17.3-7.8,26c-0.7,2.3-1.1,4.7-1.6,7
				c0.5,6.5,1.1,13,1.6,19.4c0.5,0.1,1,0.1,1.5,0.2c1.2-2,2.4-4.1,3.7-6.3c4.4,1,9.4,3.6,10.7-3.8c0.1-0.3,1.7-0.9,2-0.6
				c0.6,0.6,1,1.5,1.1,2.4c0.3,1.9,0.4,3.8,0.5,5.7c4.8-4.6,8.9-8.2,15.5-6.5c0.5,0.1,1.6-1,2.1-1.8c8.2-11.4,14.3-23.8,16.9-37.8
				c3.9-12.7,7.8-25.4,11.7-38.1c2.6-8.7,5.1-17.5,7.9-26.1c1.3-4,3.8-6.9,8.8-7.2c3.5-0.2,7-1.8,10.5-2.8c0.5,0,1,0,1.5-0.1
				c12.5-2.6,24.4-7.7,37.6-6.9c4.4,0.3,9-0.3,13.4-1.1c6.1-1.2,12-3.1,18-4.8c1.9-0.5,3.7-1.2,5.6-1.9c1.9-0.9,3.7-1.9,5.6-2.8
				c1.5-0.7,3.6-2.1,4.5-1.6c1.4,0.9,2.4,2.9,2.9,4.7c0.9,3.2,1.3,6.4,1.9,9.7c1.4,9.6,2.8,19.3,4.2,28.9c0.7,5.1,1.3,10.2,2,15.2
				c2.5,17.7,4.9,35.4,11.3,52.2c0.5,1.4-0.3,3.3-0.6,5.2c1.8,0.3,4.6-0.1,6.4,1.1c7.1,4.8,13.8,10.2,20.6,15.3
				c1.6,1.2,3.4,3.1,5.1,3c6.7-0.4,10.8,3.4,15,8.8c3.6-3,6.9-5.8,10.3-8.7c1.8-2.3,3.8-2.8,6.7-1.9c2.1,0.6,4.6,0.5,6.7,0
				c0.9-0.2,1.5-2.1,2.2-3.3c-0.2-0.8-0.4-1.6-0.5-2.4c0.2-0.3,0.2-0.6-0.1-0.8c0.2-4.9,0.4-9.8,0.6-14.8c0-0.3,0.2-0.7,0.1-1
				c-8.5-24-17-48.1-25.5-72.1c-1.8-5.3-3.6-10.6-5.4-15.9c-1.3-4.1-2.5-8.2-3.8-12.3c-1.1-3.9-2.1-7.8-3.2-11.8
				c-0.9-4-1.6-8-2.8-11.9c-1.1-3.5-1-6.5,1.9-9.1c1.2-1.3,2.3-2.7,3.6-4.1c-1-0.5-2.1-1.1-4-2c3.9-1.1,7-2,11.4-3.3
				c-5.7-4.2-10.2-7.3-14.4-10.8c-1-0.8-0.7-3.1-1.1-4.6c-2.2-4.7-8.9-6.3-8.9-13c-1.8-7.7-3.7-15.4-5.5-23.1
				c-5.1-21.6-10.2-43.3-15.4-64.9c-2.8-12.1-5.5-24.2-8.3-36.3c-0.2-0.7-1-1.2-1.5-1.8c-0.4-3.5-0.8-7-1.4-11.6
				c-4,3.7-7.3,6.7-10.5,9.7c-1.7,1.2-3.4,2.4-5,3.6c0-0.8,0-1.7,0-2.5c1.6-5.4,3.4-10.8,4.7-16.2c0.3-1.3-0.5-3.5-1.5-4.3
				c-4.3-3.3-8.9-6.2-13.4-9.3C270.4,86.1,265.8,83,261.2,79.9z"/>
			<path class="st1" d="M135.5,306c-1.4-7.9,2.8-14.4,5.2-21.3c1-2.9,1.2-6,1.8-9c0.3-1.6,0.4-3.6,1.4-4.7c4.1-4.8,5.1-10.6,6-16.5
				c0.5-3.1,1.5-6.1,2.8-9c10.3-22.8,18-46.4,23-70.9c2.7-13.5,9-25.6,15.7-37.5c3.9-7,5.8-15,8.7-22.5c0.2-0.6,0.6-1.2,1.1-1.6
				c10.2-8.7,15.4-20.7,21.2-32.2c3.8-7.4,3.5-7.6,11.8-6.9c3.3,0.3,6.6,0.6,9.9,0.9c0.4,1.6,0.7,3.2,1.3,4.7
				c2,5.1,4.5,9.9,5.9,15.1c1.7,5.9,2.5,12.1,3.9,18.8c3.1-1.8,6-3.6,8.9-5.3c-0.7,6-1.3,12-2,18c-4.8,10-8.6,20.7-14.7,29.8
				c-5.9,8.8-14.6,15.7-21.4,24c-15,18.1-30.6,35.9-44,55.1c-14.7,21.1-27.1,43.7-40.7,65.6C139.8,302.6,137.4,304.2,135.5,306z"/>
			<path class="st2" d="M280.1,310.1c-1.9,0.6-3.7,1.4-5.6,1.9c-6,1.7-12,3.5-18,4.8c-4.4,0.9-8.9,1.4-13.4,1.1
				c-13.2-0.8-25.1,4.3-37.6,6.9c-0.5,0.1-1,0.1-1.5,0.1c1.9-5.2,3.9-10.4,5.8-15.6c4.8-13.7,13.8-25.1,21.5-37.1
				c1.6-2.4,2.5-5.2,3.7-7.9c13.6-1.7,27.3-3.5,40.9-5c3.4-0.4,5.5-1.9,4.7-5.4c-2.9-12-6.1-24-9.2-36c5.9-8.3,12.1-16.5,17.6-25.1
				c6.6-10.2,12.5-20.9,18.8-31.3c0.9-1.5,2.7-2.4,4.1-3.5c5.1,21.6,10.2,43.3,15.4,64.9c1.8,7.7,3.7,15.4,5.5,23.1
				c-1.2,0.4-2.6,0.6-3.5,1.3c-3.4,2.9-7,5.7-9.9,9c-3.8,4.2-7.2,8.9-10.7,13.4c-5.1,6.7-10,13.5-15.1,20.2
				c-4.1,5.4-8.6,10.5-12.6,15.9C280.1,306.9,280.3,308.6,280.1,310.1z"/>
			<path class="st3" d="M165.1,399c-2.6,13.9-8.7,26.3-16.9,37.8c-0.5,0.8-1.6,1.9-2.1,1.8c-6.5-1.7-10.6,1.9-15.5,6.5
				c-0.2-1.9-0.2-3.8-0.5-5.7c-0.1-0.9-0.5-1.8-1.1-2.4c-0.3-0.3-1.9,0.3-2,0.6c-1.3,7.3-6.3,4.8-10.7,3.8c-1.3,2.2-2.5,4.3-3.7,6.3
				c-0.5-0.1-1-0.1-1.5-0.2c-0.5-6.5-1.1-13-1.6-19.4c1.6-1.5,3.8-2.6,4.6-4.4c9.4-23,18.3-46.2,28.1-69
				c7.1-16.8,14.7-33.4,23.1-49.5C172,292,180,279.5,188,267.1c9.7-14.8,19.9-29.3,30.1-43.7c7.8-11.1,16-21.9,24.1-32.7
				c0.7-1,2.5-1.2,3.8-1.8c-6.2,14.4-12.3,28.7-18.5,43.1c-1.7,1.4-3.7,2.5-5,4.2c-2.9,3.8-5.5,7.8-8.1,11.9
				c-7.5,11.7-15.3,23.3-22.4,35.2c-5.4,9.1-9.8,18.7-15.1,27.9c-10.3,17.7-18.8,36.1-23.3,56.2c-1.6,7.2-1.9,14.9-1.9,22.4
				C151.6,396.4,155.9,398.9,165.1,399z"/>
			<path class="st4" d="M135.5,306c1.9-1.8,4.3-3.3,5.7-5.5c13.6-21.9,26-44.5,40.7-65.6c13.4-19.3,29-37,44-55.1
				c6.8-8.3,15.5-15.2,21.4-24c6.1-9.1,9.9-19.8,14.7-29.8c1.5-0.5,2.9-1.1,5-1.8c0,2.9,0,5.4,0,7.8c-2.3,5.4-4.2,11-7.1,16
				c-4.3,7.3-9.5,14-14.2,21c-2.1,3.1-4.9,6.4-5.4,9.8c-1.5,9.2-7.1,16-12,23.2c-11.2,16.4-23.1,32.3-34.3,48.7
				c-19.8,28.9-37.3,59.2-51,91.5c-6.9,16.4-13.9,32.9-20.9,49.3c-0.6,1.3-2,2.3-3,3.4c1.3-15,1.7-30.2,4.3-45
				c2.1-12,6.9-23.6,10.4-35.3C134.4,311.8,134.9,308.9,135.5,306z"/>
			<path class="st5" d="M347,305c1.1,3.9,2.1,7.8,3.2,11.8c-1.2,1.2-2.2,2.9-3.6,3.4c-21.6,8-33.1,27.1-33.4,48.4
				c-0.2,13.4,5.9,25.6,12.8,36.6c9.8,15.6,23.9,26.9,41,34.1c0.8,0.3,1.4,1.3,2.1,2c-3.4,2.8-6.7,5.7-10.3,8.7
				c-4.2-5.5-8.3-9.2-15-8.8c-1.6,0.1-3.5-1.8-5.1-3c-6.9-5.1-13.6-10.4-20.6-15.3c-1.7-1.2-4.6-0.9-6.4-1.1
				c0.2-1.9,1.1-3.8,0.6-5.2c-6.3-16.9-8.8-34.6-11.3-52.2c-0.7-5.1-1.3-10.2-2-15.2c0.8-0.6,1.8-0.9,2.2-1.7
				c2.9-5.2,5.3-10.6,8.5-15.6C318.5,317.9,330.9,308.9,347,305z"/>
			<path class="st6" d="M165.1,399c-9.2-0.1-13.5-2.7-13.5-9.3c0-7.5,0.3-15.1,1.9-22.4c4.5-20,13-38.5,23.3-56.2
				c5.3-9.1,9.7-18.8,15.1-27.9c7.1-11.9,14.9-23.5,22.4-35.2c2.6-4,5.2-8.1,8.1-11.9c1.3-1.7,3.3-2.8,5-4.2
				c-3.7,10.7-7.5,21.4-11.1,32.2c-0.2,0.4,0.4,1.1,0.6,1.7c-4.5,7.1-9.4,14-13.5,21.3c-4.7,8.3-9.1,16.9-13,25.6
				c-5.3,11.8-10.2,23.7-14.7,35.8c-1.4,3.8-2.8,8.5,0.9,12.3C172.9,373.7,169,386.4,165.1,399z"/>
			<path class="st7" d="M384.2,433.6c0.2,0.8,0.4,1.6,0.5,2.4c-12.5-1.6-23.4-6.5-33.1-14.6c-15.6-12.9-26.5-27.7-28-49.2
				c-1.1-16.7,12.9-39.9,30.3-43.2c1.8,5.3,3.6,10.6,5.3,15.9c-13.1,3.9-21.4,17.6-17.8,30.8c6.1,22.3,20.9,36.2,43.1,42.3
				c-0.2,4.9-0.4,9.8-0.6,14.8C384.1,433.1,384.1,433.4,384.2,433.6z"/>
			<path class="st8" d="M118.9,395c1-1.1,2.5-2.1,3-3.4c7.1-16.4,14-32.8,20.9-49.3c13.7-32.4,31.2-62.6,51-91.5
				c11.2-16.4,23.1-32.3,34.3-48.7c4.9-7.2,10.6-14,12-23.2c0.6-3.5,3.3-6.7,5.4-9.8c4.7-7,9.9-13.8,14.2-21c3-5,4.8-10.6,7.1-16
				c2.3-1.7,4.7-3.5,7-5.2c1.7-1.4,4.2-2.4,4.9-4.2c1.3-3.2,3.2-4.2,6.3-3.6c0,0.8,0,1.7,0,2.5c-0.6,2.5-0.9,5.2-1.8,7.6
				c-2.2,6.1-4.1,12.5-7.3,18.2c-4.1,7.5-9.4,14.4-14.1,21.6c-0.9,0.4-2.3,0.4-2.8,1.1c-4.5,6.2-8.8,12.5-13.2,18.8
				c-1.3,0.6-3,0.8-3.8,1.8c-8.2,10.8-16.3,21.6-24.1,32.7c-10.2,14.4-20.4,28.9-30.1,43.7c-8.1,12.3-16,24.8-22.8,37.9
				c-8.4,16.1-16,32.7-23.1,49.5c-9.7,22.9-18.6,46.1-28.1,69c-0.7,1.8-3,3-4.6,4.4c0.5-2.3,1-4.7,1.6-7
				C113.7,412.3,116.3,403.6,118.9,395z"/>
			<path class="st9" d="M280.1,310.1c0.2-1.4,0-3.2,0.8-4.2c4.1-5.4,8.5-10.5,12.6-15.9c5.1-6.7,10-13.5,15.1-20.2
				c3.5-4.6,6.9-9.2,10.7-13.4c3-3.3,6.5-6.1,9.9-9c0.9-0.8,2.3-0.9,3.5-1.3c0.1,6.8,6.7,8.3,8.9,13c0.3,1.6,0.1,3.8,1.1,4.6
				c4.2,3.5,8.7,6.6,14.4,10.8c-4.4,1.3-7.5,2.2-11.4,3.3c1.9,0.9,3,1.5,4,2c-1.3,1.5-2.5,2.8-3.6,4.1c-2.9,0.5-6.2,0.3-8.7,1.5
				c-6.3,3.2-12.6,6.7-18.1,11c-5.7,4.5-10.5,10.1-15.7,15.2c-2.9,2.8-5.9,5.6-8.8,8.3c-0.6-3.2-1-6.5-1.9-9.7
				c-0.5-1.7-1.5-3.8-2.9-4.7c-0.8-0.5-3,0.9-4.5,1.6C283.7,308.2,281.9,309.1,280.1,310.1z"/>
			<path class="st1" d="M384.6,418c-22.2-6.1-37-19.9-43.1-42.3c-3.6-13.2,4.7-26.9,17.8-30.8c8.5,24,17,48.1,25.5,72.1
				C384.9,417.3,384.7,417.7,384.6,418z"/>
			<path class="st10" d="M311.9,158c-1.4,1.2-3.2,2.1-4.1,3.5c-6.4,10.4-12.3,21-18.8,31.3c-5.5,8.6-11.7,16.7-17.6,25.1
				c-2-8.9-4-17.8-6-26.7c1.4-1.2,3.4-2.2,4.3-3.7c7.1-11.8,13.7-23.8,20.9-35.4c4.7-7.4,6.3-15.4,6.5-23.9c1.7-2.7,3.4-5.5,5.1-8.2
				c0.5,0.6,1.3,1.1,1.5,1.8C306.4,133.8,309.1,145.9,311.9,158z"/>
			<path class="st11" d="M354,329c-17.4,3.3-31.5,26.5-30.3,43.2c1.5,21.5,12.4,36.3,28,49.2c9.7,8.1,20.7,13,33.1,14.6
				c-0.7,1.1-1.3,3.1-2.2,3.3c-2.2,0.5-4.7,0.6-6.7,0c-2.9-0.9-4.9-0.3-6.7,1.9c-0.7-0.7-1.2-1.7-2.1-2c-17.1-7.2-31.2-18.4-41-34.1
				c-6.9-11-13-23.2-12.8-36.6c0.3-21.2,11.7-40.4,33.4-48.4c1.4-0.5,2.4-2.3,3.6-3.4C351.4,320.8,352.7,324.9,354,329z"/>
			<path class="st10" d="M176.8,361c-3.7-3.8-2.3-8.5-0.9-12.3c4.5-12.1,9.4-24,14.7-35.8c3.9-8.7,8.3-17.3,13-25.6
				c4.1-7.3,9-14.2,13.5-21.3c6-0.6,12-1.1,18-1.7c-1.2,2.6-2.2,5.4-3.7,7.9c-7.7,12.1-16.7,23.4-21.5,37.1
				c-1.8,5.2-3.8,10.4-5.8,15.6c-3.5,1-7,2.6-10.5,2.8c-5,0.3-7.4,3.2-8.8,7.2C181.9,343.5,179.4,352.3,176.8,361z"/>
			<path class="st12" d="M294.8,320c2.9-2.8,5.9-5.5,8.8-8.3c5.2-5.1,10-10.7,15.7-15.2c5.5-4.3,11.8-7.7,18.1-11
				c2.5-1.3,5.8-1.1,8.7-1.5c-2.9,2.6-3,5.6-1.9,9.1c1.2,3.9,1.9,7.9,2.8,11.9c-16,3.9-28.5,12.9-37.2,26.8
				c-3.2,5-5.6,10.4-8.5,15.6c-0.4,0.7-1.5,1.1-2.2,1.7C297.6,339.3,296.2,329.7,294.8,320z"/>
			<path class="st6" d="M297,128.2c-0.1,8.5-1.8,16.5-6.5,23.9c-7.3,11.6-13.9,23.6-20.9,35.4c-0.9,1.5-2.8,2.5-4.3,3.7
				c-1.1-7.4-2.2-14.8-3.4-22.1c4.8-7.2,10-14.1,14.1-21.6c3.1-5.7,5-12.1,7.3-18.2c0.9-2.4,1.2-5.1,1.8-7.6c1.7-1.2,3.4-2.4,5-3.6
				c0.9,3.5,1.8,6.9,2.7,10.4C294.2,128.4,295.6,128.3,297,128.2z"/>
			<path class="st11" d="M274,126.8c-2.3,1.7-4.7,3.5-7,5.2c0-2.4,0-4.9,0-7.8c-2,0.7-3.5,1.3-5,1.8c0.7-6,1.3-12,2-18
				c-1.1-7.9-2.3-15.8-3.3-23.7c-0.2-1.4,0.3-2.9,0.5-4.4c4.6,3.1,9.2,6.3,13.8,9.4C274.7,101.8,274.3,114.3,274,126.8z"/>
			<path class="st7" d="M261.2,79.9c-0.2,1.5-0.7,3-0.5,4.4c1,7.9,2.2,15.8,3.3,23.7c-2.9,1.7-5.8,3.4-8.9,5.3
				c-1.3-6.7-2.2-12.8-3.9-18.8c-1.5-5.2-4-10.1-5.9-15.1c-0.6-1.5-0.9-3.2-1.3-4.7C249.7,76.4,255.4,78.1,261.2,79.9z"/>
			<path class="st5" d="M274,126.8c0.3-12.5,0.7-25,1-37.5c4.5,3.1,9.1,6,13.4,9.3c1,0.8,1.8,3,1.5,4.3c-1.3,5.5-3.1,10.8-4.7,16.2
				c-3.1-0.6-4.9,0.4-6.3,3.6C278.2,124.4,275.7,125.5,274,126.8z"/>
			<path class="st9" d="M297,128.2c-1.4,0.1-2.8,0.2-4.1,0.3c-0.9-3.5-1.8-7-2.7-10.4c3.2-3,6.5-6,10.5-9.7c0.5,4.6,1,8.1,1.4,11.6
				C300.4,122.7,298.7,125.4,297,128.2z"/>
			<path class="st11" d="M384.2,433.6c0-0.3-0.1-0.6-0.1-0.8C384.4,433.1,384.4,433.3,384.2,433.6z"/>
			<path class="st0" d="M262,169c1.1,7.4,2.2,14.8,3.4,22.1c2,8.9,4,17.8,6,26.7c3.1,12,6.3,24,9.2,36c0.8,3.5-1.3,5-4.7,5.4
				c-13.6,1.6-27.3,3.3-40.9,5c-6,0.6-12,1.1-18,1.7c-0.2-0.6-0.8-1.2-0.6-1.7c3.7-10.7,7.4-21.5,11.1-32.2
				c6.2-14.4,12.3-28.7,18.5-43.1c4.4-6.3,8.7-12.6,13.2-18.8C259.7,169.5,261.1,169.4,262,169z"/>
		</g>
	</g>
</g>
</svg>
